<svg width="182" height="52" viewBox="0 0 182 52" fill="none" xmlns="http://www.w3.org/2000/svg">
<path d="M4.008 46.104C4.344 45.536 4.664 44.968 4.968 44.4C5.272 43.832 5.552 43.26 5.808 42.684H7.872C7.416 43.58 6.944 44.448 6.456 45.288C5.968 46.128 5.452 46.972 4.908 47.82V51H3.036V47.844C2.492 46.996 1.972 46.148 1.476 45.3C0.988 44.452 0.516 43.58 0.06 42.684H2.232C2.488 43.26 2.764 43.832 3.06 44.4C3.356 44.968 3.672 45.536 4.008 46.104ZM11.0065 46.836C11.0065 47.244 11.0545 47.612 11.1505 47.94C11.2545 48.268 11.3985 48.552 11.5825 48.792C11.7745 49.024 12.0065 49.204 12.2785 49.332C12.5505 49.46 12.8625 49.524 13.2145 49.524C13.5585 49.524 13.8665 49.46 14.1385 49.332C14.4185 49.204 14.6505 49.024 14.8345 48.792C15.0265 48.552 15.1705 48.268 15.2665 47.94C15.3705 47.612 15.4225 47.244 15.4225 46.836C15.4225 46.428 15.3705 46.06 15.2665 45.732C15.1705 45.396 15.0265 45.112 14.8345 44.88C14.6505 44.64 14.4185 44.456 14.1385 44.328C13.8665 44.2 13.5585 44.136 13.2145 44.136C12.8625 44.136 12.5505 44.204 12.2785 44.34C12.0065 44.468 11.7745 44.652 11.5825 44.892C11.3985 45.124 11.2545 45.408 11.1505 45.744C11.0545 46.072 11.0065 46.436 11.0065 46.836ZM17.3545 46.836C17.3545 47.548 17.2465 48.176 17.0305 48.72C16.8225 49.256 16.5345 49.708 16.1665 50.076C15.7985 50.436 15.3585 50.708 14.8465 50.892C14.3425 51.076 13.7985 51.168 13.2145 51.168C12.6465 51.168 12.1105 51.076 11.6065 50.892C11.1025 50.708 10.6625 50.436 10.2865 50.076C9.91053 49.708 9.61453 49.256 9.39853 48.72C9.18253 48.176 9.07453 47.548 9.07453 46.836C9.07453 46.124 9.18653 45.5 9.41053 44.964C9.63453 44.42 9.93453 43.964 10.3105 43.596C10.6945 43.228 11.1345 42.952 11.6305 42.768C12.1345 42.584 12.6625 42.492 13.2145 42.492C13.7825 42.492 14.3185 42.584 14.8225 42.768C15.3265 42.952 15.7665 43.228 16.1425 43.596C16.5185 43.964 16.8145 44.42 17.0305 44.964C17.2465 45.5 17.3545 46.124 17.3545 46.836ZM23.247 51.168C22.663 51.168 22.159 51.088 21.735 50.928C21.311 50.76 20.959 50.532 20.679 50.244C20.407 49.948 20.203 49.6 20.067 49.2C19.939 48.792 19.875 48.344 19.875 47.856V42.684H21.747V47.7C21.747 48.036 21.783 48.324 21.855 48.564C21.935 48.796 22.039 48.988 22.167 49.14C22.303 49.284 22.463 49.388 22.647 49.452C22.839 49.516 23.047 49.548 23.271 49.548C23.727 49.548 24.095 49.408 24.375 49.128C24.663 48.848 24.807 48.372 24.807 47.7V42.684H26.679V47.856C26.679 48.344 26.611 48.792 26.475 49.2C26.339 49.608 26.131 49.96 25.851 50.256C25.571 50.544 25.215 50.768 24.783 50.928C24.351 51.088 23.839 51.168 23.247 51.168ZM31.9954 42.588C33.2434 42.588 34.1994 42.812 34.8634 43.26C35.5274 43.7 35.8594 44.388 35.8594 45.324C35.8594 45.908 35.7234 46.384 35.4514 46.752C35.1874 47.112 34.8034 47.396 34.2994 47.604C34.4674 47.812 34.6434 48.052 34.8274 48.324C35.0114 48.588 35.1914 48.868 35.3674 49.164C35.5514 49.452 35.7274 49.756 35.8954 50.076C36.0634 50.388 36.2194 50.696 36.3634 51H34.2634C34.1114 50.728 33.9554 50.452 33.7954 50.172C33.6434 49.892 33.4834 49.62 33.3154 49.356C33.1554 49.092 32.9954 48.844 32.8354 48.612C32.6754 48.372 32.5154 48.156 32.3554 47.964H31.4314V51H29.5594V42.804C29.9674 42.724 30.3874 42.668 30.8194 42.636C31.2594 42.604 31.6514 42.588 31.9954 42.588ZM32.1034 44.184C31.9674 44.184 31.8434 44.188 31.7314 44.196C31.6274 44.204 31.5274 44.212 31.4314 44.22V46.476H31.9594C32.6634 46.476 33.1674 46.388 33.4714 46.212C33.7754 46.036 33.9274 45.736 33.9274 45.312C33.9274 44.904 33.7714 44.616 33.4594 44.448C33.1554 44.272 32.7034 44.184 32.1034 44.184ZM45.8581 51.168C45.2741 51.168 44.7701 51.088 44.3461 50.928C43.9221 50.76 43.5701 50.532 43.2901 50.244C43.0181 49.948 42.8141 49.6 42.6781 49.2C42.5501 48.792 42.4861 48.344 42.4861 47.856V42.684H44.3581V47.7C44.3581 48.036 44.3941 48.324 44.4661 48.564C44.5461 48.796 44.6501 48.988 44.7781 49.14C44.9141 49.284 45.0741 49.388 45.2581 49.452C45.4501 49.516 45.6581 49.548 45.8821 49.548C46.3381 49.548 46.7061 49.408 46.9861 49.128C47.2741 48.848 47.4181 48.372 47.4181 47.7V42.684H49.2901V47.856C49.2901 48.344 49.2221 48.792 49.0861 49.2C48.9501 49.608 48.7421 49.96 48.4621 50.256C48.1821 50.544 47.8261 50.768 47.3941 50.928C46.9621 51.088 46.4501 51.168 45.8581 51.168ZM57.7265 49.392V51H52.1705V42.684H54.0425V49.392H57.7265ZM65.2427 42.684V44.28H62.7347V51H60.8627V44.28H58.3547V42.684H65.2427ZM67.5258 42.684H69.3978V51H67.5258V42.684ZM74.6107 42.684C74.7547 42.948 74.9187 43.276 75.1027 43.668C75.2947 44.052 75.4907 44.472 75.6907 44.928C75.8987 45.376 76.1027 45.836 76.3027 46.308C76.5027 46.78 76.6907 47.224 76.8667 47.64C77.0427 47.224 77.2307 46.78 77.4307 46.308C77.6307 45.836 77.8307 45.376 78.0307 44.928C78.2387 44.472 78.4347 44.052 78.6187 43.668C78.8107 43.276 78.9787 42.948 79.1227 42.684H80.8267C80.9067 43.236 80.9787 43.856 81.0427 44.544C81.1147 45.224 81.1747 45.936 81.2227 46.68C81.2787 47.416 81.3267 48.156 81.3667 48.9C81.4147 49.644 81.4547 50.344 81.4867 51H79.6627C79.6387 50.192 79.6067 49.312 79.5667 48.36C79.5267 47.408 79.4667 46.448 79.3867 45.48C79.2427 45.816 79.0827 46.188 78.9067 46.596C78.7307 47.004 78.5547 47.412 78.3787 47.82C78.2107 48.228 78.0467 48.62 77.8867 48.996C77.7267 49.364 77.5907 49.68 77.4787 49.944H76.1707C76.0587 49.68 75.9227 49.364 75.7627 48.996C75.6027 48.62 75.4347 48.228 75.2587 47.82C75.0907 47.412 74.9187 47.004 74.7427 46.596C74.5667 46.188 74.4067 45.816 74.2627 45.48C74.1827 46.448 74.1227 47.408 74.0827 48.36C74.0427 49.312 74.0107 50.192 73.9867 51H72.1627C72.1947 50.344 72.2307 49.644 72.2707 48.9C72.3187 48.156 72.3667 47.416 72.4147 46.68C72.4707 45.936 72.5307 45.224 72.5947 44.544C72.6667 43.856 72.7427 43.236 72.8227 42.684H74.6107ZM89.8202 51C89.7322 50.712 89.6322 50.416 89.5202 50.112C89.4162 49.808 89.3122 49.504 89.2082 49.2H85.9682C85.8642 49.504 85.7562 49.808 85.6442 50.112C85.5402 50.416 85.4442 50.712 85.3562 51H83.4122C83.7242 50.104 84.0202 49.276 84.3002 48.516C84.5802 47.756 84.8522 47.04 85.1162 46.368C85.3882 45.696 85.6522 45.06 85.9082 44.46C86.1722 43.852 86.4442 43.26 86.7242 42.684H88.5122C88.7842 43.26 89.0522 43.852 89.3162 44.46C89.5802 45.06 89.8442 45.696 90.1082 46.368C90.3802 47.04 90.6562 47.756 90.9362 48.516C91.2162 49.276 91.5122 50.104 91.8242 51H89.8202ZM87.5762 44.568C87.5362 44.688 87.4762 44.852 87.3962 45.06C87.3162 45.268 87.2242 45.508 87.1202 45.78C87.0162 46.052 86.9002 46.352 86.7722 46.68C86.6522 47.008 86.5282 47.352 86.4002 47.712H88.7642C88.6362 47.352 88.5122 47.008 88.3922 46.68C88.2722 46.352 88.1562 46.052 88.0442 45.78C87.9402 45.508 87.8482 45.268 87.7682 45.06C87.6882 44.852 87.6242 44.688 87.5762 44.568ZM99.1642 42.684V44.28H96.6562V51H94.7842V44.28H92.2762V42.684H99.1642ZM101.447 51V42.684H107.063V44.256H103.319V45.888H106.643V47.424H103.319V49.428H107.339V51H101.447ZM116.264 42.588C117.504 42.588 118.456 42.808 119.12 43.248C119.784 43.68 120.116 44.392 120.116 45.384C120.116 46.384 119.78 47.108 119.108 47.556C118.436 47.996 117.476 48.216 116.228 48.216H115.64V51H113.768V42.804C114.176 42.724 114.608 42.668 115.064 42.636C115.52 42.604 115.92 42.588 116.264 42.588ZM116.384 44.184C116.248 44.184 116.112 44.188 115.976 44.196C115.848 44.204 115.736 44.212 115.64 44.22V46.62H116.228C116.876 46.62 117.364 46.532 117.692 46.356C118.02 46.18 118.184 45.852 118.184 45.372C118.184 45.14 118.14 44.948 118.052 44.796C117.972 44.644 117.852 44.524 117.692 44.436C117.54 44.34 117.352 44.276 117.128 44.244C116.904 44.204 116.656 44.184 116.384 44.184ZM125.006 42.588C126.254 42.588 127.21 42.812 127.874 43.26C128.538 43.7 128.87 44.388 128.87 45.324C128.87 45.908 128.734 46.384 128.462 46.752C128.198 47.112 127.814 47.396 127.31 47.604C127.478 47.812 127.654 48.052 127.838 48.324C128.022 48.588 128.202 48.868 128.378 49.164C128.562 49.452 128.738 49.756 128.906 50.076C129.074 50.388 129.23 50.696 129.374 51H127.274C127.122 50.728 126.966 50.452 126.806 50.172C126.654 49.892 126.494 49.62 126.326 49.356C126.166 49.092 126.006 48.844 125.846 48.612C125.686 48.372 125.526 48.156 125.366 47.964H124.442V51H122.57V42.804C122.978 42.724 123.398 42.668 123.83 42.636C124.27 42.604 124.662 42.588 125.006 42.588ZM125.114 44.184C124.978 44.184 124.854 44.188 124.742 44.196C124.638 44.204 124.538 44.212 124.442 44.22V46.476H124.97C125.674 46.476 126.178 46.388 126.482 46.212C126.786 46.036 126.938 45.736 126.938 45.312C126.938 44.904 126.782 44.616 126.47 44.448C126.166 44.272 125.714 44.184 125.114 44.184ZM133.015 46.836C133.015 47.244 133.063 47.612 133.159 47.94C133.263 48.268 133.407 48.552 133.591 48.792C133.783 49.024 134.015 49.204 134.287 49.332C134.559 49.46 134.871 49.524 135.223 49.524C135.567 49.524 135.875 49.46 136.147 49.332C136.427 49.204 136.659 49.024 136.843 48.792C137.035 48.552 137.179 48.268 137.275 47.94C137.379 47.612 137.431 47.244 137.431 46.836C137.431 46.428 137.379 46.06 137.275 45.732C137.179 45.396 137.035 45.112 136.843 44.88C136.659 44.64 136.427 44.456 136.147 44.328C135.875 44.2 135.567 44.136 135.223 44.136C134.871 44.136 134.559 44.204 134.287 44.34C134.015 44.468 133.783 44.652 133.591 44.892C133.407 45.124 133.263 45.408 133.159 45.744C133.063 46.072 133.015 46.436 133.015 46.836ZM139.363 46.836C139.363 47.548 139.255 48.176 139.039 48.72C138.831 49.256 138.543 49.708 138.175 50.076C137.807 50.436 137.367 50.708 136.855 50.892C136.351 51.076 135.807 51.168 135.223 51.168C134.655 51.168 134.119 51.076 133.615 50.892C133.111 50.708 132.671 50.436 132.295 50.076C131.919 49.708 131.623 49.256 131.407 48.72C131.191 48.176 131.083 47.548 131.083 46.836C131.083 46.124 131.195 45.5 131.419 44.964C131.643 44.42 131.943 43.964 132.319 43.596C132.703 43.228 133.143 42.952 133.639 42.768C134.143 42.584 134.671 42.492 135.223 42.492C135.791 42.492 136.327 42.584 136.831 42.768C137.335 42.952 137.775 43.228 138.151 43.596C138.527 43.964 138.823 44.42 139.039 44.964C139.255 45.5 139.363 46.124 139.363 46.836ZM144.171 51C143.843 50.304 143.519 49.58 143.199 48.828C142.879 48.076 142.575 47.332 142.287 46.596C141.999 45.86 141.731 45.156 141.483 44.484C141.243 43.812 141.035 43.212 140.859 42.684H142.923C143.083 43.164 143.255 43.684 143.439 44.244C143.631 44.796 143.823 45.348 144.015 45.9C144.215 46.452 144.407 46.98 144.591 47.484C144.775 47.988 144.947 48.424 145.107 48.792C145.259 48.424 145.427 47.988 145.611 47.484C145.803 46.98 145.995 46.452 146.187 45.9C146.387 45.348 146.579 44.796 146.763 44.244C146.955 43.684 147.131 43.164 147.291 42.684H149.283C149.099 43.212 148.887 43.812 148.647 44.484C148.407 45.156 148.143 45.86 147.855 46.596C147.567 47.332 147.263 48.076 146.943 48.828C146.623 49.58 146.299 50.304 145.971 51H144.171ZM151.439 42.684H153.311V51H151.439V42.684ZM158.188 49.476C158.276 49.484 158.376 49.492 158.488 49.5C158.608 49.5 158.748 49.5 158.908 49.5C159.844 49.5 160.536 49.264 160.984 48.792C161.44 48.32 161.668 47.668 161.668 46.836C161.668 45.964 161.452 45.304 161.02 44.856C160.588 44.408 159.904 44.184 158.968 44.184C158.84 44.184 158.708 44.188 158.572 44.196C158.436 44.196 158.308 44.204 158.188 44.22V49.476ZM163.6 46.836C163.6 47.556 163.488 48.184 163.264 48.72C163.04 49.256 162.72 49.7 162.304 50.052C161.896 50.404 161.396 50.668 160.804 50.844C160.212 51.02 159.548 51.108 158.812 51.108C158.476 51.108 158.084 51.092 157.636 51.06C157.188 51.036 156.748 50.98 156.316 50.892V42.792C156.748 42.712 157.196 42.66 157.66 42.636C158.132 42.604 158.536 42.588 158.872 42.588C159.584 42.588 160.228 42.668 160.804 42.828C161.388 42.988 161.888 43.24 162.304 43.584C162.72 43.928 163.04 44.368 163.264 44.904C163.488 45.44 163.6 46.084 163.6 46.836ZM166.244 51V42.684H171.86V44.256H168.116V45.888H171.44V47.424H168.116V49.428H172.136V51H166.244ZM177.037 42.588C178.285 42.588 179.241 42.812 179.905 43.26C180.569 43.7 180.901 44.388 180.901 45.324C180.901 45.908 180.765 46.384 180.493 46.752C180.229 47.112 179.845 47.396 179.341 47.604C179.509 47.812 179.685 48.052 179.869 48.324C180.053 48.588 180.233 48.868 180.409 49.164C180.593 49.452 180.769 49.756 180.937 50.076C181.105 50.388 181.261 50.696 181.405 51H179.305C179.153 50.728 178.997 50.452 178.837 50.172C178.685 49.892 178.525 49.62 178.357 49.356C178.197 49.092 178.037 48.844 177.877 48.612C177.717 48.372 177.557 48.156 177.397 47.964H176.473V51H174.601V42.804C175.009 42.724 175.429 42.668 175.861 42.636C176.301 42.604 176.693 42.588 177.037 42.588ZM177.145 44.184C177.009 44.184 176.885 44.188 176.773 44.196C176.669 44.204 176.569 44.212 176.473 44.22V46.476H177.001C177.705 46.476 178.209 46.388 178.513 46.212C178.817 46.036 178.969 45.736 178.969 45.312C178.969 44.904 178.813 44.616 178.501 44.448C178.197 44.272 177.745 44.184 177.145 44.184Z" fill="white" fill-opacity="0.8"/>
<path d="M67.3785 25.39C66.1999 25.39 65.1772 25.208 64.3105 24.844C63.4439 24.48 62.7332 23.986 62.1785 23.362C61.6239 22.7207 61.2079 21.9667 60.9305 21.1C60.6705 20.2333 60.5405 19.2973 60.5405 18.292V6.982H63.0625V18.006C63.0625 19.8087 63.4612 21.1173 64.2585 21.932C65.0559 22.7467 66.0959 23.154 67.3785 23.154C68.0199 23.154 68.6005 23.0587 69.1205 22.868C69.6579 22.66 70.1172 22.348 70.4985 21.932C70.8799 21.516 71.1745 20.9873 71.3825 20.346C71.5905 19.6873 71.6945 18.9073 71.6945 18.006V6.982H74.2165V18.292C74.2165 19.2973 74.0779 20.2333 73.8005 21.1C73.5405 21.9667 73.1245 22.7207 72.5525 23.362C71.9979 23.986 71.2872 24.48 70.4205 24.844C69.5712 25.208 68.5572 25.39 67.3785 25.39ZM82.4969 11.48H87.6189V13.508H82.4969V19.748C82.4969 20.424 82.5489 20.9873 82.6529 21.438C82.7569 21.8713 82.9129 22.218 83.1209 22.478C83.3289 22.7207 83.5889 22.894 83.9009 22.998C84.2129 23.102 84.5769 23.154 84.9929 23.154C85.7209 23.154 86.3016 23.076 86.7349 22.92C87.1856 22.7467 87.4976 22.6253 87.6709 22.556L88.1389 24.558C87.8963 24.6793 87.4716 24.8267 86.8649 25C86.2583 25.1907 85.5649 25.286 84.7849 25.286C83.8663 25.286 83.1036 25.1733 82.4969 24.948C81.9076 24.7053 81.4309 24.35 81.0669 23.882C80.7029 23.414 80.4429 22.842 80.2869 22.166C80.1483 21.4727 80.0789 20.6753 80.0789 19.774V7.71L82.4969 7.294V11.48ZM104.094 18.24C104.094 19.3147 103.938 20.2853 103.626 21.152C103.314 22.0187 102.872 22.764 102.3 23.388C101.746 24.012 101.078 24.4973 100.298 24.844C99.5184 25.1733 98.6691 25.338 97.7504 25.338C96.8317 25.338 95.9824 25.1733 95.2024 24.844C94.4224 24.4973 93.7464 24.012 93.1744 23.388C92.6197 22.764 92.1864 22.0187 91.8744 21.152C91.5624 20.2853 91.4064 19.3147 91.4064 18.24C91.4064 17.1827 91.5624 16.2207 91.8744 15.354C92.1864 14.47 92.6197 13.716 93.1744 13.092C93.7464 12.468 94.4224 11.9913 95.2024 11.662C95.9824 11.3153 96.8317 11.142 97.7504 11.142C98.6691 11.142 99.5184 11.3153 100.298 11.662C101.078 11.9913 101.746 12.468 102.3 13.092C102.872 13.716 103.314 14.47 103.626 15.354C103.938 16.2207 104.094 17.1827 104.094 18.24ZM101.572 18.24C101.572 16.7147 101.226 15.51 100.532 14.626C99.8564 13.7247 98.9291 13.274 97.7504 13.274C96.5717 13.274 95.6357 13.7247 94.9424 14.626C94.2664 15.51 93.9284 16.7147 93.9284 18.24C93.9284 19.7653 94.2664 20.9787 94.9424 21.88C95.6357 22.764 96.5717 23.206 97.7504 23.206C98.9291 23.206 99.8564 22.764 100.532 21.88C101.226 20.9787 101.572 19.7653 101.572 18.24ZM118.702 18.266C118.702 16.6887 118.312 15.4753 117.532 14.626C116.752 13.7767 115.712 13.352 114.412 13.352C113.684 13.352 113.112 13.378 112.696 13.43C112.298 13.482 111.977 13.5427 111.734 13.612V22.14C112.029 22.3827 112.454 22.6167 113.008 22.842C113.563 23.0673 114.17 23.18 114.828 23.18C115.522 23.18 116.111 23.0587 116.596 22.816C117.099 22.556 117.506 22.2093 117.818 21.776C118.13 21.3253 118.356 20.8053 118.494 20.216C118.633 19.6093 118.702 18.9593 118.702 18.266ZM121.224 18.266C121.224 19.2887 121.086 20.2333 120.808 21.1C120.548 21.9667 120.158 22.712 119.638 23.336C119.118 23.96 118.477 24.4453 117.714 24.792C116.969 25.1387 116.111 25.312 115.14 25.312C114.36 25.312 113.667 25.208 113.06 25C112.471 24.792 112.029 24.5927 111.734 24.402V29.81H109.316V11.896C109.888 11.7573 110.599 11.61 111.448 11.454C112.315 11.2807 113.312 11.194 114.438 11.194C115.478 11.194 116.414 11.3587 117.246 11.688C118.078 12.0173 118.789 12.4853 119.378 13.092C119.968 13.6987 120.418 14.444 120.73 15.328C121.06 16.1947 121.224 17.174 121.224 18.266ZM128.865 25H126.447V11.48H128.865V25ZM127.643 9.036C127.21 9.036 126.837 8.89733 126.525 8.62C126.23 8.32533 126.083 7.93533 126.083 7.45C126.083 6.96467 126.23 6.58333 126.525 6.306C126.837 6.01133 127.21 5.864 127.643 5.864C128.076 5.864 128.44 6.01133 128.735 6.306C129.047 6.58333 129.203 6.96467 129.203 7.45C129.203 7.93533 129.047 8.32533 128.735 8.62C128.44 8.89733 128.076 9.036 127.643 9.036ZM139.419 23.258C139.991 23.258 140.494 23.2493 140.927 23.232C141.378 23.1973 141.75 23.1453 142.045 23.076V19.046C141.872 18.9593 141.586 18.89 141.187 18.838C140.806 18.7687 140.338 18.734 139.783 18.734C139.419 18.734 139.029 18.76 138.613 18.812C138.214 18.864 137.842 18.9767 137.495 19.15C137.166 19.306 136.888 19.5313 136.663 19.826C136.438 20.1033 136.325 20.476 136.325 20.944C136.325 21.8107 136.602 22.4173 137.157 22.764C137.712 23.0933 138.466 23.258 139.419 23.258ZM139.211 11.142C140.182 11.142 140.996 11.272 141.655 11.532C142.331 11.7747 142.868 12.13 143.267 12.598C143.683 13.0487 143.978 13.5947 144.151 14.236C144.324 14.86 144.411 15.5533 144.411 16.316V24.766C144.203 24.8007 143.908 24.8527 143.527 24.922C143.163 24.974 142.747 25.026 142.279 25.078C141.811 25.13 141.3 25.1733 140.745 25.208C140.208 25.26 139.67 25.286 139.133 25.286C138.37 25.286 137.668 25.208 137.027 25.052C136.386 24.896 135.831 24.6533 135.363 24.324C134.895 23.9773 134.531 23.5267 134.271 22.972C134.011 22.4173 133.881 21.75 133.881 20.97C133.881 20.2247 134.028 19.5833 134.323 19.046C134.635 18.5087 135.051 18.0753 135.571 17.746C136.091 17.4167 136.698 17.174 137.391 17.018C138.084 16.862 138.812 16.784 139.575 16.784C139.818 16.784 140.069 16.8013 140.329 16.836C140.589 16.8533 140.832 16.888 141.057 16.94C141.3 16.9747 141.508 17.0093 141.681 17.044C141.854 17.0787 141.976 17.1047 142.045 17.122V16.446C142.045 16.0473 142.002 15.6573 141.915 15.276C141.828 14.8773 141.672 14.5307 141.447 14.236C141.222 13.924 140.91 13.6813 140.511 13.508C140.13 13.3173 139.627 13.222 139.003 13.222C138.206 13.222 137.504 13.2827 136.897 13.404C136.308 13.508 135.866 13.6207 135.571 13.742L135.285 11.74C135.597 11.6013 136.117 11.4713 136.845 11.35C137.573 11.2113 138.362 11.142 139.211 11.142Z" fill="#F9F8F8"/>
<path d="M153.107 23.596C153.107 24.064 152.951 24.4713 152.639 24.818C152.327 25.1647 151.902 25.338 151.365 25.338C150.828 25.338 150.403 25.1647 150.091 24.818C149.779 24.4713 149.623 24.064 149.623 23.596C149.623 23.128 149.779 22.7207 150.091 22.374C150.403 22.0273 150.828 21.854 151.365 21.854C151.902 21.854 152.327 22.0273 152.639 22.374C152.951 22.7207 153.107 23.128 153.107 23.596Z" fill="#FEDA17"/>
<path d="M42.6007 6.55562C40.6661 5.3405 38.7316 4.54108 36.4294 4.54108C29.6825 4.54108 24.1827 10.0411 24.1827 16.7882C24.1827 19.8899 25.3338 22.8158 27.3962 25.0701C27.3962 25.0701 27.3642 26.0934 28.0038 27.0047C24.9341 24.4786 23.1914 20.7533 23.1914 16.7882C23.1914 9.48149 29.1389 3.5498 36.4294 3.5498C39.1313 3.5498 41.7213 4.34922 43.9437 5.88411L42.6007 6.55562Z" fill="white"/>
<path d="M45.1414 9.04924C47.076 11.2077 48.0512 14.1016 47.8114 17.2193C47.2518 24.8937 39.9294 28.8748 34.6694 27.9635C32.6869 27.6277 30.9602 26.3966 31.2959 24.3981C31.3599 24.0623 31.4238 23.7425 31.5198 23.4228C31.7756 22.5274 32.2232 21.3443 32.7189 20.5609C34.4615 17.7309 37.3234 13.6219 41.3363 10.5681C42.2636 9.86464 43.2069 8.98528 43.7665 8.63354L48.387 5.16406L43.5746 7.57831C43.2868 7.7222 42.9991 7.88209 42.7113 8.04197C35.117 12.5987 27.6667 21.68 29.3614 26.7324C29.921 28.3952 31.3279 29.5303 33.0546 29.8981C41.3843 31.9766 49.634 25.3734 49.634 16.8995C49.634 13.51 48.339 10.4082 46.2126 8.07395L45.1414 9.04924Z" fill="white"/>
<path d="M48.5639 7.54551L51.5057 3.30859L46.4375 4.10801L48.7557 5.01935L48.5639 7.54551Z" fill="white"/>
<path d="M22.5508 6.71405C23.4073 6.71405 24.1016 6.0197 24.1016 5.16318C24.1016 4.30665 23.4073 3.6123 22.5508 3.6123C21.6943 3.6123 21 4.30665 21 5.16318C21 6.0197 21.6943 6.71405 22.5508 6.71405Z" fill="#DA489A"/>
<path d="M26.4516 4.50872C27.6966 4.50872 28.7058 3.49941 28.7058 2.25436C28.7058 1.00931 27.6966 0 26.4516 0C25.2065 0 24.1973 1.00931 24.1973 2.25436C24.1973 3.49941 25.2065 4.50872 26.4516 4.50872Z" fill="#FEDA17"/>
<path d="M26.4513 12.4398C28.1642 12.4398 29.5529 11.0511 29.5529 9.33807C29.5529 7.62503 28.1642 6.23633 26.4513 6.23633C24.7383 6.23633 23.3496 7.62503 23.3496 9.33807C23.3496 11.0511 24.7383 12.4398 26.4513 12.4398Z" fill="#70CDDD"/>
</svg>
