<svg width="24" height="25" viewBox="0 0 24 25" fill="none" xmlns="http://www.w3.org/2000/svg">
<g clip-path="url(#clip0_1219_1621)">
<path d="M16.394 12.5003L10 8.23731V16.7633L16.394 12.5003ZM19.376 12.9163L8.777 19.9823C8.70171 20.0324 8.61423 20.0612 8.52389 20.0655C8.43355 20.0698 8.34373 20.0495 8.264 20.0069C8.18427 19.9642 8.1176 19.9006 8.07111 19.8231C8.02462 19.7455 8.00005 19.6568 8 19.5663V5.43431C8.00005 5.34387 8.02462 5.25513 8.07111 5.17756C8.1176 5.09998 8.18427 5.03646 8.264 4.99377C8.34373 4.95108 8.43355 4.93082 8.52389 4.93514C8.61423 4.93946 8.70171 4.96821 8.777 5.01831L19.376 12.0843C19.4445 12.13 19.5006 12.1918 19.5395 12.2644C19.5783 12.337 19.5986 12.418 19.5986 12.5003C19.5986 12.5826 19.5783 12.6637 19.5395 12.7362C19.5006 12.8088 19.4445 12.8707 19.376 12.9163Z" fill="#282828"/>
</g>
<defs>
<clipPath id="clip0_1219_1621">
<rect width="24" height="24" fill="white" transform="translate(0 0.5)"/>
</clipPath>
</defs>
</svg>
